<?xml version="1.0" encoding="utf-8"?>
<!-- Generator: Adobe Illustrator 16.0.4, SVG Export Plug-In . SVG Version: 6.00 Build 0)  -->
<!DOCTYPE svg PUBLIC "-//W3C//DTD SVG 1.1//EN" "http://www.w3.org/Graphics/SVG/1.1/DTD/svg11.dtd">
<svg version="1.1" id="Layer_1" xmlns="http://www.w3.org/2000/svg" xmlns:xlink="http://www.w3.org/1999/xlink" x="0px" y="0px"
	 width="256px" height="256px" viewBox="0 0 256 256" enable-background="new 0 0 256 256" xml:space="preserve">
<rect fill="#361238" width="256" height="256"/>
<g>
	<g>
		<g>
			<g>
				<path fill="#70CADB" d="M66.911,93.806c-5.494,0.042-10.147-3.232-11.864-8.343c-0.066-0.197-0.123-0.39-0.178-0.582
					c-1.87-6.545,1.756-13.391,8.255-15.582l104.24-34.924c1.267-0.363,2.543-0.548,3.807-0.556
					c5.64-0.044,10.423,3.302,12.181,8.521l0.155,0.504c1.95,6.815-2.895,12.899-8.7,14.85c-0.004,0.003-1.06,0.359-103.662,35.391
					C69.758,93.556,68.335,93.793,66.911,93.806L66.911,93.806z"/>
			</g>
			<g>
				<path fill="#E01765" d="M84.286,145.07c-5.537,0.04-10.207-3.188-11.903-8.225c-0.064-0.192-0.125-0.385-0.18-0.579
					c-1.895-6.622,1.727-13.54,8.247-15.735l104.243-35.242c1.347-0.451,2.738-0.681,4.137-0.693
					c5.552-0.043,10.43,3.35,12.152,8.443l0.16,0.53c1.006,3.521,0.412,7.478-1.59,10.601c-1.492,2.322-6.199,4.366-6.199,4.366
					l-104.64,35.779c-1.458,0.487-2.944,0.744-4.428,0.757V145.07z"/>
			</g>
			<g>
				<path fill="#E8A723" d="M171.062,145.293c-5.561,0.043-10.484-3.465-12.256-8.723L124.018,33.23l-0.174-0.58
					c-1.886-6.59,1.739-13.464,8.236-15.654c1.3-0.437,2.645-0.664,3.997-0.677c2.01-0.015,3.955,0.438,5.787,1.343
					c3.063,1.525,5.354,4.15,6.45,7.393l34.787,103.33l0.1,0.332c1.954,6.842-1.663,13.72-8.16,15.91
					c-1.287,0.43-2.627,0.654-3.98,0.666H171.062z"/>
			</g>
			<g>
				<path fill="#3EB890" d="M119.35,162.699c-5.561,0.043-10.487-3.465-12.261-8.73L72.309,50.633
					c-0.061-0.189-0.121-0.379-0.179-0.574c-1.88-6.588,1.734-13.463,8.229-15.655c1.295-0.43,2.634-0.657,3.986-0.668
					c5.56-0.044,10.484,3.463,12.256,8.724l34.783,103.34c0.064,0.18,0.123,0.379,0.176,0.569
					c1.885,6.593-1.732,13.472-8.237,15.664c-1.292,0.431-2.628,0.656-3.978,0.667H119.35z"/>
			</g>
			<path fill="#CC2027" d="M153.911,122.021l24.258-8.294l-7.93-23.55l-24.286,8.207L153.911,122.021z"/>
			<path fill="#361238" d="M102.277,139.676l24.256-8.293l-7.99-23.73l-24.279,8.21L102.277,139.676z"/>
			<path fill="#65863A" d="M136.641,70.726l24.26-8.283l-7.836-23.274l-24.305,8.143L136.641,70.726z"/>
			<path fill="#1A937D" d="M85.002,88.355l24.26-8.283L101.329,56.5l-24.306,8.143L85.002,88.355L85.002,88.355z"/>
		</g>
	</g>
</g>
<path fill="#FFFFFF" d="M21.778,171.751c1.483-0.27,3.54-0.472,6.337-0.472c3.034,0,5.258,0.641,6.708,1.854
	c1.349,1.112,2.225,2.899,2.225,5.022c0,2.157-0.674,3.943-1.955,5.157c-1.652,1.651-4.247,2.427-7.18,2.427
	c-0.775,0-1.483-0.033-2.022-0.135v8.562h-4.112V171.751z M25.89,182.335c0.505,0.135,1.18,0.169,2.022,0.169
	c3.101,0,4.989-1.518,4.989-4.18c0-2.528-1.753-3.877-4.618-3.877c-1.146,0-1.955,0.102-2.393,0.202V182.335z M48.976,194.166
	l-0.27-1.82h-0.101c-1.011,1.281-2.73,2.191-4.854,2.191c-3.303,0-5.157-2.394-5.157-4.888c0-4.146,3.674-6.235,9.741-6.202v-0.27
	c0-1.079-0.438-2.865-3.337-2.865c-1.618,0-3.303,0.506-4.416,1.214l-0.809-2.697c1.213-0.741,3.337-1.449,5.933-1.449
	c5.258,0,6.775,3.337,6.775,6.91v5.933c0,1.482,0.067,2.933,0.236,3.943H48.976z M48.436,186.144
	c-2.933-0.067-5.73,0.573-5.73,3.067c0,1.618,1.045,2.359,2.359,2.359c1.652,0,2.865-1.078,3.236-2.258
	c0.101-0.304,0.135-0.641,0.135-0.91V186.144z M56.657,190.357c0.944,0.572,2.73,1.18,4.213,1.18c1.82,0,2.629-0.742,2.629-1.82
	c0-1.112-0.674-1.686-2.696-2.394c-3.202-1.112-4.551-2.864-4.517-4.786c0-2.898,2.393-5.157,6.202-5.157
	c1.82,0,3.404,0.472,4.348,0.978l-0.809,2.933c-0.708-0.404-2.022-0.943-3.472-0.943c-1.483,0-2.292,0.707-2.292,1.719
	c0,1.045,0.775,1.551,2.865,2.292c2.966,1.078,4.348,2.596,4.382,5.022c0,2.966-2.326,5.123-6.674,5.123
	c-1.989,0-3.775-0.472-4.989-1.146L56.657,190.357z M70.709,190.357c0.944,0.572,2.73,1.18,4.213,1.18
	c1.82,0,2.629-0.742,2.629-1.82c0-1.112-0.674-1.686-2.696-2.394c-3.202-1.112-4.551-2.864-4.517-4.786
	c0-2.898,2.393-5.157,6.202-5.157c1.82,0,3.404,0.472,4.348,0.978l-0.809,2.933c-0.708-0.404-2.022-0.943-3.472-0.943
	c-1.483,0-2.292,0.707-2.292,1.719c0,1.045,0.775,1.551,2.865,2.292c2.966,1.078,4.348,2.596,4.382,5.022
	c0,2.966-2.326,5.123-6.674,5.123c-1.989,0-3.775-0.472-4.989-1.146L70.709,190.357z M87.458,177.751l1.719,7.449
	c0.371,1.753,0.742,3.539,1.045,5.325h0.067c0.337-1.786,0.876-3.606,1.348-5.292l2.124-7.482h3.371l2.056,7.28
	c0.506,1.922,0.944,3.708,1.314,5.494h0.068c0.27-1.786,0.64-3.572,1.079-5.494l1.82-7.28h4.079l-5.157,16.415h-3.842l-1.955-6.674
	c-0.506-1.719-0.876-3.27-1.247-5.259h-0.067c-0.337,2.022-0.775,3.641-1.248,5.259l-2.089,6.674h-3.876l-4.854-16.415H87.458z
	 M125.374,185.807c0,6.033-4.247,8.73-8.427,8.73c-4.652,0-8.225-3.202-8.225-8.461c0-5.393,3.539-8.696,8.494-8.696
	C122.104,177.38,125.374,180.818,125.374,185.807z M113.003,185.976c0,3.168,1.55,5.562,4.079,5.562
	c2.359,0,4.011-2.326,4.011-5.629c0-2.562-1.146-5.494-3.978-5.494C114.183,180.414,113.003,183.245,113.003,185.976z
	 M128.774,183.043c0-2.225-0.034-3.809-0.136-5.292h3.607l0.135,3.135h0.135c0.809-2.326,2.73-3.506,4.482-3.506
	c0.405,0,0.641,0.034,0.978,0.102v3.91c-0.337-0.067-0.708-0.135-1.213-0.135c-1.989,0-3.337,1.28-3.708,3.134
	c-0.067,0.371-0.135,0.81-0.135,1.281v8.494h-4.146V183.043z M155.603,170.234v19.313c0,1.686,0.067,3.506,0.135,4.618h-3.708
	l-0.169-2.596h-0.067c-0.978,1.82-2.966,2.967-5.359,2.967c-3.91,0-7.011-3.337-7.011-8.394c-0.033-5.494,3.404-8.764,7.348-8.764
	c2.259,0,3.877,0.944,4.618,2.157h0.067v-9.303H155.603z M151.456,184.594c0-0.338-0.033-0.742-0.101-1.079
	c-0.371-1.618-1.686-2.933-3.573-2.933c-2.663,0-4.146,2.359-4.146,5.427c0,3,1.482,5.191,4.111,5.191
	c1.686,0,3.169-1.146,3.573-2.933c0.102-0.371,0.135-0.775,0.135-1.214V184.594z M167.191,171.751c1.55-0.27,3.876-0.472,6.27-0.472
	c3.27,0,5.494,0.539,7.011,1.82c1.247,1.045,1.955,2.629,1.955,4.55c0,2.933-1.989,4.922-4.112,5.696v0.102
	c1.618,0.606,2.595,2.191,3.168,4.382c0.708,2.831,1.314,5.461,1.787,6.337h-4.281c-0.337-0.674-0.876-2.528-1.517-5.359
	c-0.641-2.966-1.719-3.91-4.079-3.978h-2.089v9.337h-4.112V171.751z M171.304,181.796h2.46c2.798,0,4.551-1.483,4.551-3.741
	c0-2.495-1.753-3.641-4.449-3.641c-1.314,0-2.157,0.101-2.562,0.202V181.796z M189.23,187.121c0.101,2.967,2.427,4.247,5.056,4.247
	c1.922,0,3.304-0.27,4.551-0.741l0.606,2.865c-1.416,0.572-3.37,1.011-5.73,1.011c-5.325,0-8.46-3.27-8.46-8.292
	c0-4.55,2.764-8.831,8.022-8.831c5.325,0,7.078,4.382,7.078,7.988c0,0.775-0.067,1.383-0.135,1.753H189.23z M196.443,184.223
	c0.034-1.517-0.641-4.011-3.404-4.011c-2.562,0-3.641,2.325-3.809,4.011H196.443z M203.484,190.357
	c0.943,0.572,2.73,1.18,4.213,1.18c1.82,0,2.63-0.742,2.63-1.82c0-1.112-0.675-1.686-2.697-2.394
	c-3.202-1.112-4.55-2.864-4.517-4.786c0-2.898,2.394-5.157,6.202-5.157c1.82,0,3.404,0.472,4.349,0.978l-0.81,2.933
	c-0.708-0.404-2.022-0.943-3.472-0.943c-1.483,0-2.292,0.707-2.292,1.719c0,1.045,0.775,1.551,2.865,2.292
	c2.966,1.078,4.348,2.596,4.382,5.022c0,2.966-2.326,5.123-6.674,5.123c-1.989,0-3.775-0.472-4.988-1.146L203.484,190.357z
	 M220.672,187.121c0.101,2.967,2.427,4.247,5.056,4.247c1.922,0,3.304-0.27,4.551-0.741l0.606,2.865
	c-1.416,0.572-3.37,1.011-5.73,1.011c-5.325,0-8.46-3.27-8.46-8.292c0-4.55,2.764-8.831,8.022-8.831
	c5.325,0,7.078,4.382,7.078,7.988c0,0.775-0.067,1.383-0.135,1.753H220.672z M227.885,184.223c0.034-1.517-0.641-4.011-3.404-4.011
	c-2.562,0-3.641,2.325-3.809,4.011H227.885z M239.881,173.065v4.686h3.943v3.101h-3.943v7.247c0,1.989,0.539,3.034,2.123,3.034
	c0.708,0,1.247-0.102,1.618-0.203l0.067,3.169c-0.606,0.236-1.686,0.404-3,0.404c-1.517,0-2.798-0.506-3.573-1.348
	c-0.876-0.944-1.28-2.428-1.28-4.585v-7.719h-2.359v-3.101h2.359v-3.708L239.881,173.065z M41.492,234.605v-22.719h4.719
	l5.865,9.741c1.517,2.528,2.832,5.157,3.876,7.618h0.067c-0.27-3.033-0.371-5.966-0.371-9.438v-7.922h3.843v22.719H55.21
	l-5.933-9.978c-1.449-2.494-2.966-5.292-4.078-7.854l-0.101,0.034c0.168,2.933,0.202,5.932,0.202,9.674v8.123H41.492z
	 M79.71,226.246c0,6.033-4.247,8.73-8.427,8.73c-4.652,0-8.225-3.202-8.225-8.461c0-5.393,3.539-8.696,8.494-8.696
	C76.44,217.819,79.71,221.258,79.71,226.246z M67.34,226.415c0,3.168,1.551,5.562,4.079,5.562c2.359,0,4.011-2.326,4.011-5.629
	c0-2.562-1.146-5.494-3.978-5.494C68.52,220.854,67.34,223.685,67.34,226.415z M87.863,213.505v4.686h3.944v3.101h-3.944v7.247
	c0,1.989,0.54,3.034,2.124,3.034c0.708,0,1.248-0.102,1.618-0.203l0.067,3.169c-0.607,0.236-1.686,0.404-3,0.404
	c-1.517,0-2.797-0.506-3.573-1.348c-0.876-0.944-1.281-2.428-1.281-4.585v-7.719h-2.359v-3.101h2.359v-3.708L87.863,213.505z
	 M99.355,213.606c0,1.247-0.91,2.225-2.359,2.225c-1.382,0-2.292-0.978-2.292-2.225c0-1.281,0.944-2.259,2.326-2.259
	C98.445,211.348,99.321,212.325,99.355,213.606z M94.939,234.605V218.19h4.18v16.415H94.939z M104.038,234.605v-13.314h-2.225
	v-3.101h2.225v-0.775c0-4.416,3.067-7.112,7.955-7.112c1.618,0,3.573,0.438,4.517,1.045l-0.91,3.135
	c-0.775-0.438-2.056-0.876-3.606-0.876c-2.899,0-3.843,1.753-3.843,3.91v0.674h9.809v16.415h-4.179v-13.314h-5.596v13.314H104.038z
	 M134.472,234.1c-0.877,0.404-2.596,0.843-4.652,0.843c-5.123,0-8.46-3.27-8.46-8.359c0-4.921,3.371-8.764,9.135-8.764
	c1.517,0,3.067,0.337,4.011,0.775l-0.741,3.102c-0.675-0.304-1.651-0.641-3.135-0.641c-3.168,0-5.056,2.325-5.022,5.325
	c0,3.371,2.191,5.292,5.022,5.292c1.449,0,2.46-0.304,3.27-0.641L134.472,234.1z M146.771,234.605l-0.27-1.82H146.4
	c-1.012,1.281-2.73,2.191-4.854,2.191c-3.303,0-5.157-2.394-5.157-4.888c0-4.146,3.675-6.235,9.742-6.202v-0.27
	c0-1.079-0.438-2.865-3.338-2.865c-1.617,0-3.303,0.506-4.415,1.214l-0.809-2.697c1.213-0.741,3.337-1.449,5.932-1.449
	c5.259,0,6.775,3.337,6.775,6.91v5.933c0,1.482,0.067,2.933,0.236,3.943H146.771z M146.231,226.583
	c-2.933-0.067-5.73,0.573-5.73,3.067c0,1.618,1.045,2.359,2.36,2.359c1.651,0,2.864-1.078,3.235-2.258
	c0.102-0.304,0.135-0.641,0.135-0.91V226.583z M159.205,213.505v4.686h3.943v3.101h-3.943v7.247c0,1.989,0.539,3.034,2.123,3.034
	c0.708,0,1.247-0.102,1.618-0.203l0.067,3.169c-0.606,0.236-1.686,0.404-3,0.404c-1.517,0-2.798-0.506-3.573-1.348
	c-0.876-0.944-1.28-2.428-1.28-4.585v-7.719h-2.359v-3.101h2.359v-3.708L159.205,213.505z M170.697,213.606
	c0,1.247-0.91,2.225-2.36,2.225c-1.382,0-2.292-0.978-2.292-2.225c0-1.281,0.944-2.259,2.326-2.259
	C169.787,211.348,170.663,212.325,170.697,213.606z M166.281,234.605V218.19h4.18v16.415H166.281z M190.515,226.246
	c0,6.033-4.247,8.73-8.427,8.73c-4.651,0-8.225-3.202-8.225-8.461c0-5.393,3.539-8.696,8.494-8.696
	C187.245,217.819,190.515,221.258,190.515,226.246z M178.145,226.415c0,3.168,1.55,5.562,4.078,5.562
	c2.359,0,4.011-2.326,4.011-5.629c0-2.562-1.146-5.494-3.978-5.494C179.324,220.854,178.145,223.685,178.145,226.415z
	 M193.914,223.078c0-1.888-0.033-3.472-0.135-4.888h3.641l0.202,2.461h0.101c0.708-1.281,2.494-2.832,5.225-2.832
	c2.865,0,5.831,1.854,5.831,7.045v9.741h-4.146v-9.27c0-2.359-0.876-4.146-3.135-4.146c-1.651,0-2.798,1.18-3.235,2.427
	c-0.136,0.371-0.169,0.876-0.169,1.349v9.64h-4.18V223.078z M212.988,230.797c0.943,0.572,2.73,1.18,4.213,1.18
	c1.82,0,2.63-0.742,2.63-1.82c0-1.112-0.675-1.686-2.697-2.394c-3.202-1.112-4.55-2.864-4.517-4.786
	c0-2.898,2.394-5.157,6.202-5.157c1.82,0,3.404,0.472,4.349,0.978l-0.81,2.933c-0.708-0.404-2.022-0.943-3.472-0.943
	c-1.483,0-2.292,0.707-2.292,1.719c0,1.045,0.775,1.551,2.865,2.292c2.966,1.078,4.348,2.596,4.382,5.022
	c0,2.966-2.326,5.123-6.674,5.123c-1.989,0-3.775-0.472-4.988-1.146L212.988,230.797z"/>
</svg>
